:SAMPLES-PER-SECOND 30
:FULLY-SPECIFIED
:DEGREES
184
root  -10.3945 19.5004 -4.37291 172.471 -55.2632 -21.0098
RightUpLeg  176.632 38.8001 27.5103
RightLeg  96.8205 0.35183 -0.0821705
RightFoot  -45.2179 1.13278 4.74351
RightToes  -1.16417e-010 0 -3.6325e-017
Spine  -158.968 19.8636 5.78915
Spine1  61.6766 2.23492 -23.1726
HEad  -28.2819 -40.8082 -15.33
LeftShoulder1  0.805835 -0.838391 -11.3754
LeftArm  -33.5868 -54.1914 -12.4897
LeftForeArm  18.6211 -48.987 -11.5103
LeftHand  -0.0132968 5.86649 3.54579
RightShoulder  -0.161138 -4.0787 20.328
RightArm  -11.9447 19.4284 50.7268
RightForeArm  12.0358 71.3258 35.9221
RightHand  -0.618598 6.99528 -6.137
LeftUpLeg  136.973 37.8112 -14.2379
LeftLeg  97.8799 -0.389417 0.710188
LeftFoot  -30.2288 -0.242532 -2.55261
LeftToes  1.47335e-010 -1.29615e-010 3.08757e-011
185
root  -10.3967 19.5597 -4.31236 178.451 -54.4781 -22.7989
RightUpLeg  174.173 42.24 25.8154
RightLeg  95.6801 0.0865733 1.87656
RightFoot  -44.8805 0.899249 4.01162
RightToes  -1.16417e-010 0 -3.6325e-017
Spine  -163.861 24.4022 3.85012
Spine1  59.9012 5.68175 -25.4377
HEad  -28.1861 -40.4257 -16.0748
LeftShoulder1  0.853172 -1.18813 -10.9515
LeftArm  -31.8854 -53.0988 -13.4149
LeftForeArm  20.3223 -48.9173 -11.3479
LeftHand  -0.0223248 5.6002 2.83895
RightShoulder  -0.176482 -4.1155 21.2459
RightArm  -10.3942 19.2758 51.3387
RightForeArm  12.718 71.0056 34.9202
RightHand  -0.608485 6.98333 -6.04723
LeftUpLeg  132.144 37.8861 -17.721
LeftLeg  98.0386 -0.552888 1.65181
LeftFoot  -30.6546 -0.210856 -2.32507
LeftToes  1.47335e-010 -1.29615e-010 3.08757e-011
186
root  -10.4405 19.7383 -4.30425 -178.103 -54.1393 -23.3718
RightUpLeg  172.44 44.1892 24.3295
RightLeg  94.4639 -0.00882424 2.97981
RightFoot  -44.6359 0.796362 3.69399
RightToes  -1.16417e-010 0 -3.6325e-017
Spine  -167.032 24.7655 2.8438
Spine1  59.5465 5.97583 -25.9157
HEad  -28.9995 -40.8455 -16.0378
LeftShoulder1  0.895148 -1.39241 -11.0682
LeftArm  -30.3544 -52.7029 -14.2406
LeftForeArm  21.7017 -48.0939 -10.8944
LeftHand  -0.0242165 5.53599 2.70456
RightShoulder  -0.180731 -4.13899 20.8756
RightArm  -9.56915 18.7171 52.5955
RightForeArm  14.6704 71.0391 34.6511
RightHand  -0.600622 7.12739 -5.91023
LeftUpLeg  129.595 37.4852 -19.7153
LeftLeg  97.5279 -0.64171 2.26123
LeftFoot  -30.9307 -0.177963 -2.11006
LeftToes  1.47335e-010 -1.29615e-010 3.08757e-011
187
root  -10.4253 19.6218 -4.30426 -176.861 -52.5772 -25.9114
RightUpLeg  174.07 44.948 24.1732
RightLeg  94.5298 0.00360625 2.9431
RightFoot  -44.5152 0.947733 4.2099
RightToes  -1.16417e-010 0 -3.6325e-017
Spine  -163.342 29.6196 2.72201
Spine1  54.9996 8.70337 -26.8434
HEad  -29.5753 -41.1396 -15.9032
LeftShoulder1  0.935939 -1.65923 -10.8959
LeftArm  -28.4452 -52.3656 -14.7341
LeftForeArm  22.1547 -46.4151 -10.1849
LeftHand  -0.0217726 5.52428 3.3967
RightShoulder  -0.200329 -4.20404 21.1399
RightArm  -8.70892 18.4839 53.2832
RightForeArm  16.6036 70.7353 33.5101
RightHand  -0.533294 7.13227 -5.291
LeftUpLeg  128.725 39.1319 -21.2886
LeftLeg  98.4453 -0.633367 2.01346
LeftFoot  -30.8581 -0.163482 -2.03252
LeftToes  1.47335e-010 -1.29615e-010 3.08757e-011
188
root  -10.4409 20.0988 -4.26561 -171.699 -52.4948 -24.9396
RightUpLeg  169.489 48.0464 21.0208
RightLeg  91.9608 0.0153073 4.4519
RightFoot  -43.8389 0.650858 3.27107
RightToes  -1.16417e-010 0 -3.6325e-017
Spine  -171.716 27.4853 0.498116
Spine1  57.0848 7.619 -26.569
HEad  -30.1962 -41.4944 -15.9479
LeftShoulder1  0.963278 -1.83156 -10.8157
LeftArm  -26.5857 -52.0843 -16.2053
LeftForeArm  23.4794 -44.3615 -9.33062
LeftHand  -0.00667392 6.18218 3.39733
RightShoulder  -0.212072 -4.24576 21.1728
RightArm  -8.12408 18.069 53.7895
RightForeArm  18.9385 70.7103 33.0089
RightHand  -0.465929 7.19639 -4.63604
LeftUpLeg  124.573 36.6274 -23.7687
LeftLeg  96.5523 -0.607381 2.29979
LeftFoot  -31.1962 -0.0587306 -1.41062
LeftToes  1.47335e-010 -1.29615e-010 3.08757e-011
189
root  -10.4038 20.1861 -4.16461 -168.219 -51.1303 -26.6488
RightUpLeg  168.697 50.2173 19.5926
RightLeg  90.8953 0.0377737 5.59805
RightFoot  -43.2916 0.544298 2.94513
RightToes  -1.16417e-010 0 -3.6325e-017
Spine  -173.03 32.0343 -1.39462
Spine1  54.039 10.6692 -27.2254
HEad  -31.2288 -41.8917 -15.8064
LeftShoulder1  0.992676 -2.03922 -10.6575
LeftArm  -25.025 -51.5772 -17.5739
LeftForeArm  24.6631 -41.6206 -8.32453
LeftHand  -0.0170198 5.95605 2.60202
RightShoulder  -0.211843 -4.23785 21.4156
RightArm  -7.46928 17.7618 54.2589
RightForeArm  22.2436 70.7876 32.5701
RightHand  -0.411822 6.72385 -4.27816
LeftUpLeg  121.878 36.1554 -26.1529
LeftLeg  96.647 -0.517311 1.68977
LeftFoot  -31.5331 0.04239 -0.827752
LeftToes  1.47335e-010 -1.29615e-010 3.08757e-011
190
root  -10.3976 20.5205 -4.09861 -165.596 -50.3609 -26.1573
RightUpLeg  166.83 52.5654 17.9869
RightLeg  89.1255 0.20616 6.75631
RightFoot  -42.6373 0.339954 2.25046
RightToes  -1.16417e-010 0 -3.6325e-017
Spine  -176.312 32.1092 -2.62946
Spine1  53.5502 10.6972 -27.1279
HEad  -32.0245 -42.6107 -15.2211
LeftShoulder1  1.02244 -2.29277 -10.3547
LeftArm  -22.9368 -51.3613 -19.1589
LeftForeArm  25.3412 -38.4203 -7.306
LeftHand  -0.018879 5.72745 3.02771
RightShoulder  -0.250406 -4.36152 21.9271
RightArm  -6.73788 17.8295 54.3733
RightForeArm  22.1631 70.3448 31.5423
RightHand  -0.604075 6.86577 -6.06538
LeftUpLeg  119.865 33.8487 -27.1511
LeftLeg  95.3427 -0.28304 0.161511
LeftFoot  -31.6321 0.257168 0.357974
LeftToes  1.47335e-010 -1.29615e-010 3.08757e-011
191
root  -10.3808 21.0779 -4.03915 -162.048 -50.2414 -24.6153
RightUpLeg  162.489 55.4179 14.6875
RightLeg  86.5356 0.552363 8.28246
RightFoot  -41.6541 -0.0065956 1.0113
RightToes  -1.16417e-010 0 -3.6325e-017
Spine  177.58 29.3887 -3.8031
Spine1  55.2403 9.14491 -26.5299
HEad  -33.5011 -42.5415 -14.0969
LeftShoulder1  1.0544 -2.46868 -10.376
LeftArm  -20.9224 -51.2214 -19.7378
LeftForeArm  25.2298 -35.0269 -6.37389
LeftHand  -0.0209366 5.74432 2.54383
RightShoulder  -0.244951 -4.3508 21.6302
RightArm  -6.231 17.6237 55.4164
RightForeArm  23.0135 69.9921 30.6046
RightHand  -0.57328 7.16849 -5.64247
LeftUpLeg  117.903 27.6844 -26.9622
LeftLeg  92.9289 -0.0046623 -3.67416
LeftFoot  -31.6723 0.734124 3.09634
LeftToes  1.47335e-010 -1.29615e-010 3.08757e-011
192
root  -10.0596 21.8816 -4.08106 -161.277 -49.1642 -20.7602
RightUpLeg  155.414 52.1225 8.56714
RightLeg  83.2974 0.361548 2.34153
RightFoot  -40.1814 1.104 5.50275
RightToes  -1.16417e-010 0 -3.6325e-017
Spine  175.752 31.974 -4.0905
Spine1  53.998 10.9069 -25.5988
HEad  -34.4019 -42.4451 -13.3236
LeftShoulder1  1.08748 -2.72104 -10.17
LeftArm  -18.9168 -50.4245 -20.9107
LeftForeArm  24.6554 -31.4439 -5.50716
LeftHand  -0.0112192 6.28527 2.5002
RightShoulder  -0.245068 -4.34193 21.9464
RightArm  -5.33803 17.5309 55.9929
RightForeArm  23.2091 69.7415 30.0386
RightHand  -0.64053 6.84109 -6.41521
LeftUpLeg  115.771 25.5421 -26.2612
LeftLeg  88.5415 -0.0340202 -6.11608
LeftFoot  -29.7908 0.804102 3.60892
LeftToes  1.47335e-010 -1.29615e-010 3.08757e-011
193
root  -9.59034 23.1069 -4.09282 -160.363 -49.0597 -13.2946
RightUpLeg  145.056 42.3276 -0.491558
RightLeg  78.5232 -1.23021 -9.40806
RightFoot  -38.5277 3.96318 15.7811
RightToes  -1.16417e-010 0 -3.6325e-017
Spine  170.843 32.7056 -4.04152
Spine1  55.1246 12.0182 -23.7804
HEad  -35.3147 -42.7149 -12.6511
LeftShoulder1  1.1078 -2.90653 -9.96383
LeftArm  -16.9523 -50.1918 -22.8405
LeftForeArm  22.9195 -26.6885 -4.49116
LeftHand  0.0137937 7.29722 3.02962
RightShoulder  -0.245726 -4.33892 22.123
RightArm  -4.31637 17.562 56.5187
RightForeArm  24.7077 69.7852 29.8588
RightHand  -0.673011 6.6509 -6.80587
LeftUpLeg  110.866 32.6025 -28.0792
LeftLeg  81.7194 -0.213969 1.28421
LeftFoot  -27.7773 -0.507821 -4.55476
LeftToes  1.47335e-010 -1.29615e-010 3.08757e-011
194
root  -9.62099 23.0652 -3.94819 -155.047 -47.8426 -15.1572
RightUpLeg  129.609 13.3466 7.90307
RightLeg  83.6903 -3.33176 -36.7775
RightFoot  -23.5365 0.0425149 27.0272
RightToes  -1.16417e-010 0 -3.6325e-017
Spine  165.862 34.3106 -8.09411
Spine1  52.395 13.6478 -24.2142
HEad  -36.4351 -42.4405 -11.2347
LeftShoulder1  1.13008 -3.15373 -9.61919
LeftArm  -16.1113 -49.8485 -24.5746
LeftForeArm  22.1433 -21.2519 -3.81118
LeftHand  0.0311654 8.27627 2.88834
RightShoulder  -0.257891 -4.3685 22.5638
RightArm  -3.18355 17.2961 57.2144
RightForeArm  28.7095 70.1938 29.9816
RightHand  -0.403018 6.73011 -4.2097
LeftUpLeg  106.377 31.4524 -31.5872
LeftLeg  82.7719 -0.172903 1.00143
LeftFoot  -28.9384 -0.603261 -5.02537
LeftToes  1.47335e-010 -1.29615e-010 3.08757e-011
195
root  -9.39313 23.1369 -3.89547 -146.095 -46.5494 -14.2178
RightUpLeg  -141.191 -86.7675 -83.5989
RightLeg  107.248 -2.6937 -136.706
RightFoot  38.5587 -13.7447 36.2691
RightToes  -1.16417e-010 0 -3.6325e-017
Spine  155.674 39.946 -14.4142
Spine1  48.7457 19.0418 -23.2057
HEad  -38.1877 -43.0955 -9.99518
LeftShoulder1  1.15651 -3.34442 -9.52689
LeftArm  -19.3128 -49.4361 -26.2829
LeftForeArm  24.5549 -15.5496 -3.9597
LeftHand  0.027621 8.62017 2.54677
RightShoulder  -0.244406 -4.32561 22.4334
RightArm  -2.50304 17.0497 58.1432
RightForeArm  32.3946 70.8257 30.6601
RightHand  -0.401313 6.23776 -4.3352
LeftUpLeg  96.5506 29.1517 -36.0043
LeftLeg  82.7448 -0.24213 0.683183
LeftFoot  -29.6832 -0.623468 -4.97261
LeftToes  1.47335e-010 -1.29615e-010 3.08757e-011
